TRON Legacy 3D (2010)3DTV Active Shutter (side by side)

 
http://www.imdb.com/title/tt1104001/

The following 3D presentation contains several 2D scenes which is how they were shot and intended to be viewed. 




Format                           : Matroska
Format version                   : Version 2
File size                        : 13.5 GiB
Duration                         : 2h 5mn
Overall bit rate                 : 15.5 Mbps
Movie name                       : TRON_LEGACY_3D.Title144.Bluray3DRip
Encoded date                     : UTC 2011-11-26 23:21:21
Writing application              : DVDFab
Writing library                  : libebml v0.7.8 + libmatroska v0.8.1

Video
ID                               : 1
Format                           : AVC
Format/Info                      : Advanced Video Codec
Format profile                   : High@L5.1
Format settings, CABAC           : Yes
Format settings, ReFrames        : 2 frames
Format settings, GOP             : M=3, N=15
Codec ID                         : V_MPEG4/ISO/AVC
Duration                         : 2h 5mn
Bit rate mode                    : Variable
Bit rate                         : 14.7 Mbps
Maximum bit rate                 : 22.5 Mbps
Width                            : 1 920 pixels
Height                           : 1 080 pixels
Display aspect ratio             : 16:9
Frame rate                       : 23.976 fps
Color space                      : YUV
Chroma subsampling               : 4:2:0
Bit depth                        : 8 bits
Scan type                        : Progressive
Bits/(Pixel*Frame)               : 0.296
Stream size                      : 12.9 GiB (95%)

Audio
ID                               : 2
Format                           : AC-3
Format/Info                      : Audio Coding 3
Mode extension                   : CM (complete main)
Codec ID                         : A_AC3
Duration                         : 2h 5mn
Bit rate mode                    : Constant
Bit rate                         : 448 Kbps
Channel(s)                       : 6 channels
Channel positions                : Front: L C R, Side: L R, LFE
Sampling rate                    : 48.0 KHz
Bit depth                        : 16 bits
Compression mode                 : Lossy
Stream size                      : 401 MiB (3%)